<svg xmlns="http://www.w3.org/2000/svg" width="170.013" height="49.262" viewBox="0 0 170.013 49.262">
    <defs>
        <style>
            .prefix__cls-1{fill:#a50c22}
        </style>
    </defs>
    <g id="prefix__Group_8240" data-name="Group 8240" transform="translate(-219.647 -302.659)">
        <g id="prefix__Group_8230" data-name="Group 8230" transform="translate(219.647 302.659)">
            <g id="prefix__Group_8170" data-name="Group 8170" transform="translate(20.987 .077)">
                <path id="prefix__Path_17072" d="M253.161 305.626a1 1 0 0 1-.108.036c-.486.058-.486.058-.693-.383-.119-.255-.119-.254-.408-.231-.237.019-.475.039-.711.048a.259.259 0 0 0-.288.234 4.738 4.738 0 0 1-.141.482l-.589.045c.029-.108.047-.186.07-.261l.8-2.583c.065-.212.066-.218.286-.224.484-.014.358-.105.58.342.358.728.706 1.461 1.059 2.192l.141.3m-1.617-2.111l-.065.006c-.1.353-.2.706-.316 1.1l.86-.058c-.17-.381-.314-.721-.479-1.052" class="prefix__cls-1" data-name="Path 17072" transform="translate(-250.224 -302.771)"/>
            </g>
            <g id="prefix__Group_8171" data-name="Group 8171" transform="translate(25.385 .844)">
                <path id="prefix__Path_17073" d="M256.633 305.05a1.108 1.108 0 1 1 1.125 1.09 1.042 1.042 0 0 1-1.125-1.09m1.667-.062h-.023a1.312 1.312 0 0 0 0-.147.53.53 0 0 0-1.04-.108.954.954 0 0 0-.018.579.524.524 0 0 0 .477.393.509.509 0 0 0 .517-.334 2.58 2.58 0 0 0 .087-.379" class="prefix__cls-1" data-name="Path 17073" transform="translate(-256.633 -303.888)"/>
            </g>
            <g id="prefix__Group_8172" data-name="Group 8172" transform="translate(28.008 1.153)">
                <path id="prefix__Path_17074" d="M260.971 306.54l-.518-.116c.162-.7.321-1.382.482-2.085l.467.095-.018.285c.084-.039.151-.074.221-.1a.862.862 0 0 1 .863.086.511.511 0 0 1 .24.457 1.882 1.882 0 0 1-.037.34c-.086.4-.18.8-.272 1.2-.01.047-.032.091-.057.163l-.509-.119c.076-.333.148-.642.216-.953a4.114 4.114 0 0 0 .083-.434c.025-.242-.05-.365-.235-.428a.439.439 0 0 0-.518.171.907.907 0 0 0-.112.27c-.085.333-.162.668-.243 1-.011.047-.029.093-.054.171" class="prefix__cls-1" data-name="Path 17074" transform="translate(-260.453 -304.339)"/>
            </g>
            <g id="prefix__Group_8173" data-name="Group 8173" transform="translate(24.275)">
                <path id="prefix__Path_17075" d="M255.059 302.659h.52c.036.492 0 .979 0 1.465s-.014.98-.022 1.488h-.541c-.011-.982.049-1.951.043-2.953" class="prefix__cls-1" data-name="Path 17075" transform="translate(-255.014 -302.659)"/>
            </g>
            <g id="prefix__Group_8174" data-name="Group 8174" transform="translate(6.515 12.266)">
                <path id="prefix__Path_17076" d="M264.625 334.017a17.8 17.8 0 0 1-35.486.087 8.954 8.954 0 0 0 8.861 7.417 8.864 8.864 0 0 0 8.352-5.93c-.11-.069-.224-.142-.341-.213a6.364 6.364 0 0 1-2.33-2.415 4.538 4.538 0 0 1-.568-2.044 4.123 4.123 0 0 1 .6-2.3 8.495 8.495 0 0 1 .784-1.069 10.787 10.787 0 0 0 1.5-2.127 5.162 5.162 0 0 0 .573-2.1 6.553 6.553 0 0 0-.156-1.538c-.068-.345-.121-.693-.178-1.041a1.6 1.6 0 0 1 0-.218 1.731 1.731 0 0 1 .195.1 11.512 11.512 0 0 1 3.847 4.374 8.12 8.12 0 0 1-.322 7.687 7.449 7.449 0 0 1-1.674 1.822c-.217.175-.432.353-.645.533-.069.058-.128.127-.194.188a.293.293 0 0 0-.07.355 8.944 8.944 0 0 0 .747 1.576 8.756 8.756 0 0 0 6.1 4.218 8.9 8.9 0 0 0 9.747-5.186 9.9 9.9 0 0 0 .657-2.175" class="prefix__cls-1" data-name="Path 17076" transform="translate(-229.139 -320.53)"/>
            </g>
            <g id="prefix__Group_8175" data-name="Group 8175" transform="translate(0 27.049)">
                <path id="prefix__Path_17077" d="M224.061 345.967c-.058-.2-.111-.387-.17-.585a.6.6 0 0 1 .1-.069 1.063 1.063 0 0 0 .682-1.205 2.381 2.381 0 0 0-.24-.872.912.912 0 0 0-.488-.463.652.652 0 0 0-.9.457 6.266 6.266 0 0 0-.1.9c-.025.359-.027.721-.055 1.08a2.35 2.35 0 0 1-.091.456 1.416 1.416 0 0 1-2.163.778 1.842 1.842 0 0 1-.717-.883 3.078 3.078 0 0 1-.209-1.829 1.71 1.71 0 0 1 1.221-1.324.705.705 0 0 1 .118-.014l.181.585a1.2 1.2 0 0 1-.121.072 1.223 1.223 0 0 0-.8 1.085 2.089 2.089 0 0 0 .424 1.57.8.8 0 0 0 .709.323.68.68 0 0 0 .633-.434 2.229 2.229 0 0 0 .137-.594c.033-.36.028-.721.056-1.081a4.876 4.876 0 0 1 .113-.85 1.228 1.228 0 0 1 1.166-.995 1.362 1.362 0 0 1 1.279.637 2.682 2.682 0 0 1 .421 1.092 2.588 2.588 0 0 1 0 .953 1.5 1.5 0 0 1-1.182 1.21" class="prefix__cls-1" data-name="Path 17077" transform="translate(-219.647 -342.069)"/>
            </g>
            <g id="prefix__Group_8176" data-name="Group 8176" transform="translate(2.847 34.77)">
                <path id="prefix__Path_17078" d="M227.245 353.755l-.366.307.008.051a1.437 1.437 0 0 1 1.181.553 1.119 1.119 0 0 1 .161 1.293c.106.014.19.027.274.032a1.38 1.38 0 0 1 1.14.712 1.027 1.027 0 0 1-.126 1.312 2.018 2.018 0 0 1-.249.236q-1.026.806-2.055 1.607c-.032.025-.067.045-.128.087-.126-.158-.25-.313-.383-.482.076-.063.136-.118.2-.167.555-.435 1.112-.868 1.666-1.3a3.862 3.862 0 0 0 .407-.356.6.6 0 0 0 .108-.745.919.919 0 0 0-1.205-.451 2.235 2.235 0 0 0-.419.251c-.534.409-1.062.826-1.592 1.239-.07.054-.141.1-.226.169l-.381-.489c.077-.067.135-.121.2-.17.574-.452 1.152-.9 1.723-1.351a2.513 2.513 0 0 0 .4-.392.582.582 0 0 0 .016-.73.917.917 0 0 0-1.181-.362 3.322 3.322 0 0 0-.6.375c-.472.355-.933.724-1.4 1.087-.069.055-.142.106-.229.17l-.393-.494 3.1-2.423.353.437" class="prefix__cls-1" data-name="Path 17078" transform="translate(-223.795 -353.318)"/>
            </g>
            <g id="prefix__Group_8177" data-name="Group 8177" transform="translate(10.383 9.715)">
                <path id="prefix__Path_17079" d="M238.649 316.813l.368.474-.415.355 2.038 2.615a1.2 1.2 0 0 1-.178.049c-.1.01-.2 0-.294.019a.482.482 0 0 1-.514-.232c-.457-.611-.933-1.207-1.4-1.808-.054-.071-.113-.138-.18-.222a3.013 3.013 0 0 0-.773.653l2.323 2.409c-.277.047-.506.1-.736.119-.056.006-.13-.057-.179-.106-.266-.268-.526-.542-.788-.811-.056-.058-.116-.111-.2-.19l-.692.763.55.512a.268.268 0 0 1-.267.132c-.3 0-.59-.007-.885-.012a.318.318 0 0 1-.337-.2.364.364 0 0 1 .089-.4c.316-.344.626-.694.938-1.042.055-.061.106-.124.178-.209l-.488-.5c-.587.5-1.032 1.107-1.572 1.653l-.455-.4 1.185-1.317.183.127.015-.019-.109-.16a17.336 17.336 0 0 1 2.6-2.245" class="prefix__cls-1" data-name="Path 17079" transform="translate(-234.775 -316.813)"/>
            </g>
            <g id="prefix__Group_8178" data-name="Group 8178" transform="translate(28.141 4.505)">
                <path id="prefix__Path_17080" d="M261.976 312.918l.055.522c-.195.019-.364.034-.533.055a1.023 1.023 0 0 0-.214.05.256.256 0 0 0-.2.3.268.268 0 0 0 .239.271 2.484 2.484 0 0 0 .509-.017 1.694 1.694 0 0 0 .283-.08l-.023.272a6.772 6.772 0 0 0 .55-1.491l-1.846-.516.161-.574c.073.011.128.013.181.027l1.159.331.95.27a3.213 3.213 0 0 0-.22-.281 3.793 3.793 0 0 0-1.253-.894.308.308 0 0 1-.227-.328c0-.162-.024-.324-.041-.539a2.713 2.713 0 0 1 1.3.872.921.921 0 0 0-.016-.153c-.071-.209-.143-.419-.22-.626a.5.5 0 0 0-.285-.349.182.182 0 0 1-.091-.129c-.026-.21-.038-.422-.06-.682a5.484 5.484 0 0 1 .689.326.669.669 0 0 1 .22.344c.119.366.228.736.315 1.111.1.406.172.817.233 1.231.03.194.086.327.294.359a.7.7 0 0 1 .14.065l-.2.561-.515-.164c-.218.513-.385 1.042-.579 1.56s-.376 1.027-.581 1.59c-.162-.224-.3-.4-.422-.6a.3.3 0 0 1 .006-.205c.065-.209.141-.415.224-.658h-.307a.969.969 0 0 1-1.005-.935.714.714 0 0 1 .326-.674 1.487 1.487 0 0 1 1-.22" class="prefix__cls-1" data-name="Path 17080" transform="translate(-260.648 -309.223)"/>
            </g>
            <g id="prefix__Group_8179" data-name="Group 8179" transform="translate(22.542 6.45)">
                <path id="prefix__Path_17081" d="M252.552 312.769a1.862 1.862 0 0 1-.043-.207c-.01-.121-.012-.244-.019-.386l.77-.066c.205-.016.409-.032.614-.044a.458.458 0 0 1 .371.067c.039.034.127.017.191.017H255.846a1.327 1.327 0 0 1 .021.606l-.513.024c-.006.1-.016.185-.016.273v2.756a.368.368 0 0 0 .17.345.871.871 0 0 1 .277 1 .782.782 0 0 1-.782.559 1.252 1.252 0 0 1-.849-.27 2.8 2.8 0 0 1-.357-.336 8.076 8.076 0 0 1-.742-1.054.353.353 0 0 1 .453.169 2.954 2.954 0 0 0 .673.779.945.945 0 0 0 .914.222.411.411 0 0 0 .323-.386.318.318 0 0 0-.45-.339 1.236 1.236 0 0 0-.284.189 1.484 1.484 0 0 0-.163.177c-.117-.169-.218-.314-.316-.458a.794.794 0 0 1 .8-.419c-.02-.122-.113-.154-.182-.194a.3.3 0 0 1-.156-.307c.008-.393 0-.787 0-1.181 0-.087-.007-.176-.013-.3-.386.032-.752.052-1.114.1a.317.317 0 0 0-.258.387 1.31 1.31 0 0 0 .114.348 2.865 2.865 0 0 0 .6.807c.053.051.112.095.193.163l-.24.178a.978.978 0 0 1-.137-.108c-.233-.275-.478-.541-.693-.83a1.621 1.621 0 0 1-.327-1.012.632.632 0 0 1 .178-.471.5.5 0 0 1 .249-.139c.439-.047.88-.075 1.346-.112.02.146.039.27.056.4a2.476 2.476 0 0 0 .01-.932l-.234-.014c-.048 0-.113.011-.144-.014-.147-.119-.31-.07-.47-.06-.343.023-.686.05-1.03.073h-.2" class="prefix__cls-1" data-name="Path 17081" transform="translate(-252.49 -312.057)"/>
            </g>
            <g id="prefix__Group_8180" data-name="Group 8180" transform="translate(29.525 42.375)">
                <path id="prefix__Path_17082" d="M264.946 366.441l-.625-1.837.6-.205 1.774 5.149-.544.187c-.06-.143-.109-.262-.174-.414-.041.073-.071.116-.091.162a1.412 1.412 0 0 1-1.4.8 1.744 1.744 0 0 1-1.331-.826 2.841 2.841 0 0 1-.479-1.795 1.5 1.5 0 0 1 2.1-1.285c.035.019.075.028.171.064m-1.652 1.441a2.708 2.708 0 0 0 .5 1.373 1.09 1.09 0 0 0 .8.473 1 1 0 0 0 1.071-1.076 2.561 2.561 0 0 0-.566-1.519 1.022 1.022 0 0 0-1.146-.344 1.051 1.051 0 0 0-.657 1.092" class="prefix__cls-1" data-name="Path 17082" transform="translate(-262.664 -364.399)"/>
            </g>
            <g id="prefix__Group_8181" data-name="Group 8181" transform="translate(22.841 43.39)">
                <path id="prefix__Path_17083" d="M258.341 365.877l.136.718c-.209.044-.393.08-.586.12l-.112-.157a.626.626 0 0 0-.04.077l-.787 2.225-.931 2.645c-.08.228-.082.228-.329.236-.124 0-.245.007-.369.009-.024 0-.049-.006-.106-.012-.754-1.761-1.513-3.537-2.292-5.354l.747-.034 1.885 4.753a1.055 1.055 0 0 0 .076-.143l1.485-4.533c.063-.195.071-.2.276-.209.1-.006.209-.009.321-.014l.044-.218.583-.108" class="prefix__cls-1" data-name="Path 17083" transform="translate(-252.925 -365.877)"/>
            </g>
            <g id="prefix__Group_8182" data-name="Group 8182" transform="translate(36.226 40.427)">
                <path id="prefix__Path_17084" d="M277.1 364.112c-.078.069-.131.118-.186.164-.1.083-.2.163-.314.254-.134-.087-.255-.167-.385-.25-.1.07-.084.19-.113.284a2.053 2.053 0 0 1-1.022 1.266 1.13 1.13 0 0 1-.684.156 1.1 1.1 0 0 1-.915-1.468 1.875 1.875 0 0 1 .4-.64q.414-.455.821-.915c.063-.073.113-.158.187-.264-.109-.117-.206-.235-.318-.338a.535.535 0 0 0-.529-.119 1.587 1.587 0 0 0-.941.743.674.674 0 0 0-.045.5c.018.086.05.172.087.293-.165.1-.335.2-.518.313a1.184 1.184 0 0 1-.123-1.08 2.5 2.5 0 0 1 1.581-1.41.863.863 0 0 1 .9.24 4.877 4.877 0 0 1 .391.441c.22.266.428.54.651.8a3.547 3.547 0 0 0 1.066 1.025m-1.885-1c-.167.217-.307.408-.457.59s-.324.37-.484.555a1.178 1.178 0 0 0-.114.16.592.592 0 0 0 .019.71.619.619 0 0 0 .707.2 1.376 1.376 0 0 0 .851-1.164 1.589 1.589 0 0 0-.522-1.049" class="prefix__cls-1" data-name="Path 17084" transform="translate(-272.428 -361.56)"/>
            </g>
            <g id="prefix__Group_8183" data-name="Group 8183" transform="translate(15.846 44.27)">
                <path id="prefix__Path_17085" d="M243.955 368.179l-.546-.246a1.239 1.239 0 0 1 1.13-.772 2.728 2.728 0 0 1 1.592.421.934.934 0 0 1 .452 1.12c-.134.539-.3 1.073-.443 1.612-.069.26-.136.523-.18.789a3.278 3.278 0 0 0 0 .509c-.143-.038-.259-.068-.375-.1-.271-.078-.281-.092-.265-.375 0-.047.008-.1.013-.153-.114-.044-.2.028-.283.058a2.039 2.039 0 0 1-1.711-.134 1.059 1.059 0 0 1-.489-1.426 1.072 1.072 0 0 1 .993-.649 6.044 6.044 0 0 1 .831.062c.318.03.634.072.953.1.21.018.227 0 .285-.213a.67.67 0 0 0-.391-.892 2.827 2.827 0 0 0-.678-.2.714.714 0 0 0-.7.272c-.058.069-.113.137-.182.222m1.732 1.332a.841.841 0 0 0-.114-.027c-.367-.03-.734-.061-1.1-.086a3.545 3.545 0 0 0-.491-.015.563.563 0 0 0-.533.433.571.571 0 0 0 .227.651 1.393 1.393 0 0 0 .492.209 1.137 1.137 0 0 0 1.217-.388 2.052 2.052 0 0 0 .3-.776" class="prefix__cls-1" data-name="Path 17085" transform="translate(-242.735 -367.159)"/>
            </g>
            <g id="prefix__Group_8184" data-name="Group 8184" transform="translate(7.291 39.716)">
                <path id="prefix__Path_17086" d="M232.582 365.274l-.489-.429.186-.456-.3-.03a1.988 1.988 0 0 1-1.522-.923 1.076 1.076 0 0 1 .64-1.643 1.2 1.2 0 0 1 .86.1c.2.1.381.222.57.336.288.173.57.355.863.52.191.107.212.094.349-.071a.677.677 0 0 0 .011-.995 2.749 2.749 0 0 0-.474-.422.748.748 0 0 0-.856-.047l-.189.1c-.131-.152-.259-.3-.4-.457a1.2 1.2 0 0 1 1.108-.3 2.556 2.556 0 0 1 1.552 1.2.913.913 0 0 1-.1 1.121c-.324.4-.667.788-1 1.181-.027.031-.055.06-.081.092a3.283 3.283 0 0 0-.723 1.115m.664-2.03c-.061-.041-.086-.06-.113-.074-.327-.185-.655-.369-.983-.551a3.148 3.148 0 0 0-.391-.2.594.594 0 0 0-.793.327.636.636 0 0 0 .108.647 1.389 1.389 0 0 0 .663.484 1.042 1.042 0 0 0 1.135-.233c.122-.119.234-.248.372-.4" class="prefix__cls-1" data-name="Path 17086" transform="translate(-230.27 -360.524)"/>
            </g>
            <g id="prefix__Group_8185" data-name="Group 8185" transform="translate(44.119 29.625)">
                <path id="prefix__Path_17087" d="M284.925 348.476l-.262.539a1.25 1.25 0 0 1-.735-1.2 2.8 2.8 0 0 1 .421-1.446.974.974 0 0 1 1.237-.483c.472.135.936.3 1.406.441a3.662 3.662 0 0 0 1.434.28c-.06.187-.111.349-.161.513a.151.151 0 0 1-.17.111c-.105 0-.21-.01-.351-.018.03.114.053.213.084.309a2.03 2.03 0 0 1-.165 1.617 1.07 1.07 0 0 1-1.2.6 1.083 1.083 0 0 1-.881-1.069 5.585 5.585 0 0 1 .073-.8c.043-.342.1-.682.141-1.022.025-.208.005-.222-.182-.283a.686.686 0 0 0-.939.383 2.953 2.953 0 0 0-.217.723.65.65 0 0 0 .224.6c.077.071.156.141.244.218m1.373-1.66c-.032.316-.06.617-.095.916-.026.218-.072.437-.086.655a.606.606 0 0 0 .461.666.616.616 0 0 0 .7-.323 1.4 1.4 0 0 0 .15-1.067 1.214 1.214 0 0 0-1.133-.848" class="prefix__cls-1" data-name="Path 17087" transform="translate(-283.928 -345.821)"/>
            </g>
            <g id="prefix__Group_8186" data-name="Group 8186" transform="translate(40.735 33.307)">
                <path id="prefix__Path_17088" d="M284.064 354.959c-.1.187-.193.35-.3.546-1.6-.877-3.172-1.757-4.767-2.64.11-.195.2-.363.312-.557l1.7.937c-.019-.126-.027-.2-.04-.268a1.623 1.623 0 0 1 .693-1.623.99.99 0 0 1 .848-.123 2.779 2.779 0 0 1 .544.223c.713.387 1.421.784 2.13 1.177.035.02.067.044.124.082-.1.18-.194.355-.3.542-.092-.045-.164-.079-.235-.117-.638-.353-1.274-.709-1.915-1.059a2.025 2.025 0 0 0-.4-.176.71.71 0 0 0-.792.25 1.009 1.009 0 0 0 .154 1.5c.375.262.785.472 1.183.7.3.175.616.341.924.513.042.023.08.053.141.095" class="prefix__cls-1" data-name="Path 17088" transform="translate(-278.997 -351.186)"/>
            </g>
            <g id="prefix__Group_8187" data-name="Group 8187" transform="translate(36.094 13.96)">
                <path id="prefix__Path_17089" d="M274.472 326.569c-.108.053-.187.1-.269.131-.179.078-.307 0-.314-.2a.4.4 0 0 1 .013-.146c.075-.251.152-.5.239-.749a.456.456 0 0 1 .126-.176c.172-.156.282-.137.406.059.025.04.056.077.1.137l.83-.458a6.393 6.393 0 0 0-.511-.87l-2.835 1.769a1.226 1.226 0 0 1-.023-.187c0-.13.027-.262.021-.391a.332.332 0 0 1 .189-.336c.678-.413 1.349-.838 2.023-1.26.075-.047.15-.1.247-.162l-.222-.41.508-.32a30.745 30.745 0 0 1 1.773 2.993l-.519.289-.32-.538-.854.474.443.817-.6.336-.458-.8" class="prefix__cls-1" data-name="Path 17089" transform="translate(-272.235 -322.999)"/>
            </g>
            <g id="prefix__Group_8188" data-name="Group 8188" transform="translate(13.831 7.39)">
                <path id="prefix__Path_17090" d="M240.48 315.495l.915-.509.917-.511a.678.678 0 0 0-.125-.106c-.255-.111-.507-.23-.769-.322a.879.879 0 0 0-.782.067.32.32 0 0 1-.44-.047 4.764 4.764 0 0 0-.4-.3 1.529 1.529 0 0 1 1.24-.284 6.773 6.773 0 0 1 1.475.664.284.284 0 0 0 .4-.008l.3.537-.544.323.574 1.054-.484.268c-.106.06-.216.117-.321.181a.456.456 0 0 0-.169.671.637.637 0 0 0 .949.116c-.016-.023-.03-.051-.049-.074a.383.383 0 0 1-.074-.49.482.482 0 0 1 .489-.26.316.316 0 0 1 .174.08c.184.211.368.43.264.746a.365.365 0 0 0 0 .089 1.475 1.475 0 0 1 .6.395c-.133.076-.257.147-.365.211-.166-.1-.312-.183-.46-.265a.224.224 0 0 0-.231 0 1.334 1.334 0 0 1-1.765-.514 1.534 1.534 0 0 1-.187-.5.532.532 0 0 1 .322-.625c.143-.081.285-.161.427-.244.014-.008.023-.023.058-.063l-.268-.5-1.374.755c-.1-.181-.195-.349-.3-.536" class="prefix__cls-1" data-name="Path 17090" transform="translate(-239.798 -313.426)"/>
            </g>
            <g id="prefix__Group_8189" data-name="Group 8189" transform="translate(1.413 31.758)">
                <path id="prefix__Path_17091" d="M223.415 352.811a1.511 1.511 0 0 1-.984-.377 1.975 1.975 0 0 1-.713-1.332 1.609 1.609 0 0 1 .617-1.5 2.944 2.944 0 0 1 1.564-.661 1.575 1.575 0 0 1 1.034.244 1.98 1.98 0 0 1 .865 1.932 1.663 1.663 0 0 1-.43.868 3 3 0 0 1-1.951.826m.642-3.231a2.33 2.33 0 0 0-1.478.684 1.117 1.117 0 0 0 .83 1.9 2.181 2.181 0 0 0 1.537-.677 1.055 1.055 0 0 0 .22-1.227 1.108 1.108 0 0 0-1.109-.675" class="prefix__cls-1" data-name="Path 17091" transform="translate(-221.705 -348.93)"/>
            </g>
            <g id="prefix__Group_8190" data-name="Group 8190" transform="translate(8.491 13.503)">
                <path id="prefix__Path_17092" d="M232.787 325.059l-.264.388-.505-.308a18.548 18.548 0 0 1 1.85-2.806l.48.343-.306.456 2.7 1.97a3.221 3.221 0 0 1-.694.247c-.067.015-.167-.049-.235-.1-.639-.459-1.274-.922-1.911-1.384-.078-.056-.159-.112-.255-.178a4.168 4.168 0 0 0-.518.785l2.855 1.719a2.73 2.73 0 0 1-.669.325c-.056.021-.152-.038-.219-.079-.669-.4-1.336-.8-2-1.2-.1-.058-.2-.112-.307-.176" class="prefix__cls-1" data-name="Path 17092" transform="translate(-232.018 -322.332)"/>
            </g>
            <g id="prefix__Group_8191" data-name="Group 8191" transform="translate(32.599 42.051)">
                <path id="prefix__Path_17093" d="M267.143 365.6l.6-.321 2.461 2.249a.411.411 0 0 0 .014-.1q-.187-1.227-.376-2.453c-.031-.2-.051-.407-.086-.608a.178.178 0 0 1 .106-.219c.139-.065.274-.139.435-.222.055.395.106.758.154 1.122.144 1.089.292 2.176.428 3.267a6.633 6.633 0 0 1 .062.955.969.969 0 0 1-.739.96c-.179.049-.2.045-.306-.108-.071-.1-.137-.2-.217-.321l.253-.108a.662.662 0 0 0 .454-.732v-.025a1.018 1.018 0 0 0-.4-.842c-.9-.758-1.781-1.55-2.668-2.329-.054-.047-.1-.1-.174-.165" class="prefix__cls-1" data-name="Path 17093" transform="translate(-267.143 -363.926)"/>
            </g>
            <g id="prefix__Group_8192" data-name="Group 8192" transform="translate(11.416 42.415)">
                <path id="prefix__Path_17094" d="M238.521 364.457c.224.119.41.216.605.321l-.487 3.3 2.478-2.243.535.281a.9.9 0 0 1-.108.142q-1.75 1.547-3.505 3.088a2.648 2.648 0 0 1-.614.4.939.939 0 0 1-1.05-.183.2.2 0 0 1-.073-.257c.053-.126.1-.255.163-.4.1.065.175.121.257.17a.668.668 0 0 0 .859-.062 1.086 1.086 0 0 0 .469-.809c.111-1.1.268-2.194.407-3.291.018-.137.04-.274.066-.458" class="prefix__cls-1" data-name="Path 17094" transform="translate(-236.279 -364.457)"/>
            </g>
            <g id="prefix__Group_8193" data-name="Group 8193" transform="translate(32.269 9.641)">
                <path id="prefix__Path_17095" d="M268.541 317.024l.372-.318.213.162c.316.247.631.5.949.742.075.058.145.113.08.226.04-.023.08-.047.144-.082l1.5 1.4-.406.449a20.2 20.2 0 0 0-2.022-1.733l-2.062 2.638c-.086-.264-.165-.477-.221-.695a.288.288 0 0 1 .068-.195c.121-.171.254-.336.4-.526l-.171-.04a.988.988 0 0 1-.552-1.514.759.759 0 0 1 .845-.3c.441.1.488.168.454.612 0 .047-.016.093-.028.158a2 2 0 0 0-.262-.1 3.17 3.17 0 0 0-.529-.087.462.462 0 0 0-.266.1.2.2 0 0 0 0 .351.79.79 0 0 0 .5.169h.517l.777-1-.262-.214c-.08-.066-.128-.11-.054-.2z" class="prefix__cls-1" data-name="Path 17095" transform="translate(-266.661 -316.706)"/>
            </g>
            <g id="prefix__Group_8194" data-name="Group 8194" transform="translate(17.252 6.996)">
                <path id="prefix__Path_17096" d="M246.123 313.352l.161.315.031-.011-.073-.347a8.4 8.4 0 0 1 1.624-.457c.047.172.1.349.15.542-.181.059-.333.111-.515.173.3 1.061.6 2.111.909 3.192a2.883 2.883 0 0 1-.708-.209c-.044-.016-.072-.1-.092-.161-.059-.177-.109-.357-.17-.561-.083.061-.144.11-.209.155a.991.991 0 0 1-1.487-.585.908.908 0 0 1 .656-1.019.187.187 0 0 1 .133.03c.122.093.237.2.367.3-.135.09-.254.161-.362.245a.825.825 0 0 0-.327.418.292.292 0 0 0 .065.318c.093.084.2.052.3.006a1.061 1.061 0 0 0 .458-.431c.05-.081.1-.159.176-.268-.113-.389-.235-.811-.366-1.269-.625.224-1.2.493-1.827.725l-.234-.567 1.34-.541" class="prefix__cls-1" data-name="Path 17096" transform="translate(-244.783 -312.852)"/>
            </g>
            <g id="prefix__Group_8195" data-name="Group 8195" transform="translate(34.204 12.084)">
                <path id="prefix__Path_17097" d="M269.76 322.767c-.168-.02-.259-.087-.266-.249a4.8 4.8 0 0 1 .087-1.395 1.158 1.158 0 0 1 .543-.73.645.645 0 0 1 1.038.535c0 .056.008.111.012.167.531-.017.667.117.63.636l.233-.082c.066.076.135.146.193.223.172.23.6.093.691-.159a.264.264 0 0 0-.064-.274c-.119-.145-.235-.293-.366-.457l.463-.384c.378.42.706.864 1.082 1.315l-.469.385-.3-.333c-.047.056-.089.1-.126.151a1.179 1.179 0 0 1-.69.438.838.838 0 0 1-.561-.1.29.29 0 0 0 .009.4 1.1 1.1 0 0 0 .538.371c.1.035.206.053.348.089a5.591 5.591 0 0 1-.575.463c-.033.023-.113.005-.16-.016a.987.987 0 0 1-.642-1.3c.064-.2.168-.388.254-.586-.174-.286-.369-.314-.6-.075-.137.141-.269.286-.427.453l-.223-.5.329-.36c.084-.091.181-.176.1-.319a.4.4 0 0 0-.419-.191.612.612 0 0 0-.395.346 2.774 2.774 0 0 0-.213.929c-.021.2-.034.4-.051.611" class="prefix__cls-1" data-name="Path 17097" transform="translate(-269.481 -320.266)"/>
            </g>
            <g id="prefix__Group_8196" data-name="Group 8196" transform="translate(38.577 37.204)">
                <path id="prefix__Path_17098" d="M275.853 359.48l.447-.487 3.036 1.313a3.33 3.33 0 0 0-.285-.594c-.094-.2-.2-.4-.3-.592s-.2-.395-.3-.592l-.3-.59c-.1-.197-.2-.393-.3-.6l.439-.474c.08.153.146.274.207.4l1.552 3.152c.108.221.11.222-.057.4-.291.306-.2.284-.571.132q-1.673-.678-3.343-1.364c-.065-.027-.13-.058-.221-.1" class="prefix__cls-1" data-name="Path 17098" transform="translate(-275.853 -356.864)"/>
            </g>
            <g id="prefix__Group_8197" data-name="Group 8197" transform="translate(1.372 14.034)">
                <path id="prefix__Path_17099" d="M223.507 325.088c.095.216.167.408.262.586a.4.4 0 0 0 .19.138c.209.093.421.176.662.275l-.211.532-2.765-1.119.216-.528 1.18.467.041-.043c-.035-.078-.068-.157-.1-.235-.19-.4-.378-.8-.573-1.2a.348.348 0 0 1-.011-.327c.075-.161.139-.328.223-.531l.141.294c.141.314.279.629.42.942.1.212.1.215.337.168.531-.1 1.061-.209 1.591-.313.086-.016.172-.025.3-.043-.091.227-.159.419-.247.6a.267.267 0 0 1-.181.1c-.428.07-.857.131-1.287.195-.048.007-.094.021-.183.042" class="prefix__cls-1" data-name="Path 17099" transform="translate(-221.646 -323.106)"/>
            </g>
            <g id="prefix__Group_8198" data-name="Group 8198" transform="translate(14.944 2.122)">
                <path id="prefix__Path_17100" d="M242.077 308.644c.172-.046.342-.094.514-.135a.157.157 0 0 1 .111.033.344.344 0 0 0 .35.033c.351-.117.434-.288.307-.639-.03-.083-.065-.164-.113-.278-.047.069-.079.11-.1.155a.781.781 0 0 1-1.2.255 1.33 1.33 0 0 1-.512-1.284.812.812 0 0 1 1.1-.658l.159.051-.046-.263.43-.163a.967.967 0 0 1 .074.13c.219.565.443 1.129.649 1.7a2.819 2.819 0 0 1 .132.6.525.525 0 0 1-.205.477 1.7 1.7 0 0 1-1.127.419.521.521 0 0 1-.527-.426m-.115-1.731a1.131 1.131 0 0 0 .23.629.455.455 0 0 0 .515.186.485.485 0 0 0 .339-.486 1 1 0 0 0-.269-.666.467.467 0 0 0-.815.337" class="prefix__cls-1" data-name="Path 17100" transform="translate(-241.419 -305.75)"/>
            </g>
            <g id="prefix__Group_8199" data-name="Group 8199" transform="translate(6.385 6.886)">
                <path id="prefix__Path_17101" d="M228.95 314.957l.384-.365 1.23.645.038-.036c-.211-.409-.48-.786-.708-1.206l.361-.378 1.251.706a2.779 2.779 0 0 0-.33-.66c-.111-.209-.231-.413-.353-.629l.327-.345a13.119 13.119 0 0 1 1.092 1.968l-.38.347-1.17-.642-.042.044c.213.391.463.762.693 1.168l-.366.388c-.665-.332-1.323-.658-2.027-1.007" class="prefix__cls-1" data-name="Path 17101" transform="translate(-228.95 -312.691)"/>
            </g>
            <g id="prefix__Group_8200" data-name="Group 8200" transform="translate(12.461 2.487)">
                <path id="prefix__Path_17102" d="M238.92 306.283l1.441 2.6-.414.242-.17-.211a1 1 0 0 0-.062.115.827.827 0 0 1-1.369.362 1.55 1.55 0 0 1-.535-.971.84.84 0 0 1 .976-.957h.159l-.5-.92.472-.262m-.04 1.486a.479.479 0 0 0-.526.5 1.1 1.1 0 0 0 .355.706.463.463 0 0 0 .562.091.476.476 0 0 0 .223-.526 1.132 1.132 0 0 0-.339-.612 1.213 1.213 0 0 0-.275-.161" class="prefix__cls-1" data-name="Path 17102" transform="translate(-237.802 -306.283)"/>
            </g>
            <g id="prefix__Group_8201" data-name="Group 8201" transform="translate(36.978 4.721)">
                <path id="prefix__Path_17103" d="M274.111 311.986l-.212.191-.377-.3c.6-.788 1.211-1.555 1.826-2.344.081.058.154.106.222.16s.123.1.2.17l-.627.828c.1.011.149.02.2.023a.836.836 0 0 1 .778 1.048 1.468 1.468 0 0 1-.776.968.811.811 0 0 1-1.209-.609c0-.032-.014-.062-.03-.139m.3-.127a.439.439 0 0 0 .684.4 1.128 1.128 0 0 0 .506-.669.414.414 0 0 0-.131-.445.436.436 0 0 0-.452-.106 1.027 1.027 0 0 0-.606.824" class="prefix__cls-1" data-name="Path 17103" transform="translate(-273.522 -309.538)"/>
            </g>
            <g id="prefix__Group_8202" data-name="Group 8202" transform="translate(44.89 26.638)">
                <path id="prefix__Path_17104" d="M289.029 343.6c-.035.207-.067.4-.1.617l-3.877-.684c.036-.194.067-.359.1-.546l.533.062c-.149-.181-.285-.321-.39-.479a.663.663 0 0 1-.062-.568 1.164 1.164 0 0 1 .307-.528l.522.3c-.043.078-.075.134-.105.191a.69.69 0 0 0 .33 1.025 3.366 3.366 0 0 0 .745.238c.585.117 1.176.21 1.764.313.064.012.127.031.233.057" class="prefix__cls-1" data-name="Path 17104" transform="translate(-285.05 -341.47)"/>
            </g>
            <g id="prefix__Group_8203" data-name="Group 8203" transform="translate(8.675 16.925)">
                <path id="prefix__Path_17105" d="M235.3 328.9v.383c-.132.047-.274.1-.421.146a.429.429 0 0 0-.327.292.876.876 0 0 1-.189.283.31.31 0 0 1-.359.089.378.378 0 0 1-.263-.3.575.575 0 0 1 .341-.622.3.3 0 0 0 .168-.341c-.021-.176-.143-.255-.294-.165a5.2 5.2 0 0 0-.474.349c-.136.105-.262.224-.406.316a.935.935 0 0 1-.34.132.376.376 0 0 1-.453-.434.257.257 0 0 1 .012-.073c.2-.544.408-1.086.616-1.638a2.27 2.27 0 0 1 .57.184l-.487 1.309.045.023a1.857 1.857 0 0 1 .164-.172 4.116 4.116 0 0 1 .544-.415.528.528 0 0 1 .776.222 3.648 3.648 0 0 1 .206.529c.067-.01.16-.023.253-.039s.19-.036.317-.06" class="prefix__cls-1" data-name="Path 17105" transform="translate(-232.286 -327.318)"/>
            </g>
            <g id="prefix__Group_8204" data-name="Group 8204" transform="translate(37.438 17.244)">
                <path id="prefix__Path_17106" d="M274.193 330.336c.062-.277.112-.491.156-.706.023-.113.119-.126.2-.159q.91-.372 1.821-.738c.22-.089.438-.181.676-.279l-.141-.448.554-.224.637 1.566c-.187.079-.363.153-.562.235-.076-.169-.143-.323-.224-.5l-1.535.618-1.581.637" class="prefix__cls-1" data-name="Path 17106" transform="translate(-274.193 -327.783)"/>
            </g>
            <g id="prefix__Group_8205" data-name="Group 8205" transform="translate(41.742 10.72)">
                <path id="prefix__Path_17107" d="M281.079 320.4l.107-.217-.188-.086a.9.9 0 0 1-.487-.526.59.59 0 0 1 .184-.706.576.576 0 0 1 .746-.01 4.558 4.558 0 0 1 .362.33c.1.089.191.179.289.267a.371.371 0 0 0 .08.042c.2-.124.241-.191.2-.345a.531.531 0 0 0-.537-.4c-.03-.065-.066-.136-.1-.211s-.048-.134-.076-.214a.684.684 0 0 1 .7.12 1.689 1.689 0 0 1 .48.73.521.521 0 0 1-.194.651c-.207.148-.42.283-.633.422a2.221 2.221 0 0 0-.671.57c-.095-.146-.177-.275-.271-.418m.771-.719a5.362 5.362 0 0 0-.471-.417.255.255 0 0 0-.408.207.461.461 0 0 0 .1.289c.194.241.487.213.782-.079" class="prefix__cls-1" data-name="Path 17107" transform="translate(-280.464 -318.277)"/>
            </g>
            <g id="prefix__Group_8206" data-name="Group 8206" transform="translate(5.179 9.981)">
                <path id="prefix__Path_17108" d="M228.321 317.2a1.134 1.134 0 0 1 .038 2.267 1.214 1.214 0 0 1-1.167-1.137 1.155 1.155 0 0 1 1.128-1.13m-.108.517a.511.511 0 0 0-.5.686.9.9 0 0 0 .756.538.514.514 0 0 0 .486-.7.908.908 0 0 0-.741-.524" class="prefix__cls-1" data-name="Path 17108" transform="translate(-227.193 -317.201)"/>
            </g>
            <g id="prefix__Group_8207" data-name="Group 8207" transform="translate(10.353 4.9)">
                <path id="prefix__Path_17109" d="M236.413 310.995l.461-.209a.8.8 0 0 1-.122.765 1.174 1.174 0 0 1-.659.445.874.874 0 0 1-.808-.181 1.459 1.459 0 0 1-.533-.859.888.888 0 0 1 .357-.931.923.923 0 0 1 1.014-.131 1.421 1.421 0 0 1 .578.56c-.374.3-.78.537-1.147.826a.482.482 0 0 0 .588.255c.21-.071.284-.211.271-.541m-.344-.48c-.227-.3-.484-.349-.693-.173a.431.431 0 0 0 .008.653l.685-.48" class="prefix__cls-1" data-name="Path 17109" transform="translate(-234.731 -309.798)"/>
            </g>
            <g id="prefix__Group_8208" data-name="Group 8208" transform="translate(17.483 1.551)">
                <path id="prefix__Path_17110" d="M245.771 306.3c.1.3.254.445.469.447s.338-.1.446-.417l.51-.043a.831.831 0 0 1-.366.667 1.241 1.241 0 0 1-.719.211.8.8 0 0 1-.632-.279 1.379 1.379 0 0 1-.321-1.257.884.884 0 0 1 .749-.689.9.9 0 0 1 .988.382 1.223 1.223 0 0 1 .231.6l-1.356.374m.757-.546c-.123-.369-.357-.5-.619-.386a.419.419 0 0 0-.186.605l.805-.219" class="prefix__cls-1" data-name="Path 17110" transform="translate(-245.118 -304.919)"/>
            </g>
            <g id="prefix__Group_8209" data-name="Group 8209" transform="translate(43.771 14.194)">
                <path id="prefix__Path_17111" d="M284.823 325.345c-.2-.434-.4-.846-.592-1.255a.435.435 0 0 0-.37.457c.008.247.12.352.487.439l.13.463a.725.725 0 0 1-.693-.2 1.142 1.142 0 0 1-.363-.784 1.037 1.037 0 0 1 .1-.47 1.415 1.415 0 0 1 1.411-.627.993.993 0 0 1 .465 1.615 1.374 1.374 0 0 1-.575.364m.054-.643c.31-.118.427-.36.315-.6s-.368-.308-.671-.159l.356.762" class="prefix__cls-1" data-name="Path 17111" transform="translate(-283.42 -323.339)"/>
            </g>
            <g id="prefix__Group_8210" data-name="Group 8210" transform="translate(39.231 7.476)">
                <path id="prefix__Path_17112" d="M278.5 315.464l-.975-1a.458.458 0 0 0-.2.561c.084.218.227.279.61.255.055.078.117.163.175.251.032.047.056.1.089.157a.744.744 0 0 1-.8-.026 1.732 1.732 0 0 1-.408-.384.84.84 0 0 1-.07-.969 1.474 1.474 0 0 1 .725-.674.93.93 0 0 1 1.095.25.92.92 0 0 1 .149 1.115 1.573 1.573 0 0 1-.386.467m-.157-.621c.264-.257.281-.515.072-.7a.433.433 0 0 0-.653.1l.581.607" class="prefix__cls-1" data-name="Path 17112" transform="translate(-276.806 -313.551)"/>
            </g>
            <g id="prefix__Group_8211" data-name="Group 8211" transform="translate(30.628 1.967)">
                <path id="prefix__Path_17113" d="M266.2 307.1l-1.321-.421a.453.453 0 0 0 .08.587c.19.164.356.15.651-.067l.44.231a.751.751 0 0 1-.739.36 1.717 1.717 0 0 1-.559-.164.835.835 0 0 1-.483-.819 1.488 1.488 0 0 1 .317-.912.932.932 0 0 1 1.058-.313.9.9 0 0 1 .677.89 1.338 1.338 0 0 1-.122.628m-.421-.473a.445.445 0 0 0-.077-.548.385.385 0 0 0-.452-.088.376.376 0 0 0-.262.38l.791.255" class="prefix__cls-1" data-name="Path 17113" transform="translate(-264.271 -305.524)"/>
            </g>
            <g id="prefix__Group_8212" data-name="Group 8212" transform="translate(3.422 12.196)">
                <path id="prefix__Path_17114" d="M227.2 321.758c-.264-.152-.511-.294-.759-.434-.149-.085-.3-.174-.452-.248-.228-.109-.384-.078-.5.083a.443.443 0 0 0 .036.585 1.519 1.519 0 0 0 .294.219c.246.15.495.289.743.434.062.038.121.078.2.127l-.262.463-1.856-1.071.231-.421.26.1c-.012-.1-.021-.181-.027-.26a.849.849 0 0 1 .095-.5.631.631 0 0 1 .927-.305c.45.234.884.5 1.349.76l-.273.472" class="prefix__cls-1" data-name="Path 17114" transform="translate(-224.633 -320.429)"/>
            </g>
            <g id="prefix__Group_8213" data-name="Group 8213" transform="translate(44.583 16.448)">
                <path id="prefix__Path_17115" d="M286.584 328.355l-.242-.416a.546.546 0 0 0 .006-.7c-.046-.078-.11-.153-.218-.117a.178.178 0 0 0-.109.2c0 .13.015.261.021.391a4.756 4.756 0 0 1 .018.54.574.574 0 0 1-.792.514.74.74 0 0 1-.384-.293 1.488 1.488 0 0 1-.277-.973.745.745 0 0 1 .35-.59l.248.456a.54.54 0 0 0-.094.725.477.477 0 0 0 .108.132.183.183 0 0 0 .32-.125 1.644 1.644 0 0 0-.012-.245c-.011-.212-.03-.425-.029-.637a.545.545 0 0 1 .373-.55.577.577 0 0 1 .669.17 1.5 1.5 0 0 1 .353 1 .594.594 0 0 1-.31.521" class="prefix__cls-1" data-name="Path 17115" transform="translate(-284.603 -326.623)"/>
            </g>
            <g id="prefix__Group_8214" data-name="Group 8214" transform="translate(10.508 41.731)">
                <path id="prefix__Path_17116" d="M235.492 367.109l-.536-.349 2.141-3.3.538.347-2.143 3.3" class="prefix__cls-1" data-name="Path 17116" transform="translate(-234.956 -363.46)"/>
            </g>
            <g id="prefix__Group_8215" data-name="Group 8215" transform="translate(41.181 36.401)">
                <path id="prefix__Path_17117" d="M283.233 357.954l-.367.524-3.22-2.255.361-.529 3.226 2.26" class="prefix__cls-1" data-name="Path 17117" transform="translate(-279.646 -355.694)"/>
            </g>
            <g id="prefix__Group_8216" data-name="Group 8216" transform="translate(27.917 44.875)">
                <path id="prefix__Path_17118" d="M261.7 371.9l-.629.113c-.251-1.292-.5-2.557-.749-3.855l.629-.121c.251 1.294.5 2.558.749 3.863" class="prefix__cls-1" data-name="Path 17118" transform="translate(-260.321 -368.041)"/>
            </g>
            <g id="prefix__Group_8217" data-name="Group 8217" transform="translate(33.838 2.52)">
                <path id="prefix__Path_17119" d="M270.381 306.33l.5.277-1.2 2.169 1.309.738-.22.414-1.826-1.01c.478-.863.949-1.711 1.433-2.588" class="prefix__cls-1" data-name="Path 17119" transform="translate(-268.948 -306.33)"/>
            </g>
            <g id="prefix__Group_8218" data-name="Group 8218" transform="translate(43.047 12.433)">
                <path id="prefix__Path_17120" d="M283.065 322.667l-.322.244a3.062 3.062 0 0 1-.264-.326.478.478 0 0 1 .17-.751c.256-.163.522-.309.782-.463.084-.049.167-.1.263-.159l-.078-.249c.1-.062.206-.122.321-.19l.168.185a.3.3 0 0 0 .1-.034.4.4 0 0 1 .572.01c.062.048.133.086.233.151l-.622.373c.054.113.1.215.162.343l-.334.207-.235-.322c-.331.194-.655.381-.976.575a.161.161 0 0 0-.045.254c.032.047.065.091.108.152" class="prefix__cls-1" data-name="Path 17120" transform="translate(-282.365 -320.773)"/>
            </g>
            <g id="prefix__Group_8219" data-name="Group 8219" transform="translate(8.549 5.522)">
                <path id="prefix__Path_17121" d="M232.1 311.05l.421-.345 1.909 2.275-.409.359-1.92-2.289" class="prefix__cls-1" data-name="Path 17121" transform="translate(-232.102 -310.705)"/>
            </g>
            <g id="prefix__Group_8220" data-name="Group 8220" transform="translate(30.313 9.267)">
                <path id="prefix__Path_17122" d="M263.812 316.9c.124-.242.229-.452.339-.66.047-.088.13-.09.215-.071a.849.849 0 0 1 .583.452 1.344 1.344 0 0 1-.463 1.715.391.391 0 0 1-.5-.028.271.271 0 0 1 .07-.485 1.708 1.708 0 0 0 .346-.183.753.753 0 0 0 .217-.259.306.306 0 0 0-.192-.45 1.938 1.938 0 0 0-.41-.054 1.187 1.187 0 0 0-.205.023" class="prefix__cls-1" data-name="Path 17122" transform="translate(-263.812 -316.161)"/>
            </g>
            <g id="prefix__Group_8221" data-name="Group 8221" transform="translate(40.586 9.052)">
                <path id="prefix__Path_17123" d="M279.119 317.618l-.34-.419 1.668-1.351.3.367-.162.2c.2.03.4.012.531.176a.486.486 0 0 1 .132.353l-.413.156c-.032-.062-.056-.113-.082-.161a.332.332 0 0 0-.493-.165 2.682 2.682 0 0 0-.432.28c-.235.176-.461.363-.71.561" class="prefix__cls-1" data-name="Path 17123" transform="translate(-278.779 -315.848)"/>
            </g>
            <g id="prefix__Group_8222" data-name="Group 8222" transform="translate(7.455 16.736)">
                <path id="prefix__Path_17124" d="M230.509 329.133c.275-.717.535-1.394.8-2.09l.575.22c-.27.7-.532 1.387-.8 2.089l-.577-.219" class="prefix__cls-1" data-name="Path 17124" transform="translate(-230.509 -327.043)"/>
            </g>
            <g id="prefix__Group_8223" data-name="Group 8223" transform="translate(36.052 4.597)">
                <path id="prefix__Path_17125" d="M273.31 309.356l.461.287-1.135 1.82-.463-.286 1.137-1.821" class="prefix__cls-1" data-name="Path 17125" transform="translate(-272.173 -309.356)"/>
            </g>
            <g id="prefix__Group_8224" data-name="Group 8224" transform="translate(36.085 18.708)">
                <path id="prefix__Path_17126" d="M272.865 329.916a.927.927 0 0 1 .5.522.48.48 0 0 1 .009.427 2.185 2.185 0 0 1-.237.4c-.193.244-.4.476-.607.71-.1.115-.106.112-.312.039.032-.056.059-.111.094-.161.185-.262.375-.518.555-.782.123-.181.115-.229-.038-.382-.11-.109-.227-.211-.361-.336.065-.075.125-.147.189-.218s.134-.143.205-.219" class="prefix__cls-1" data-name="Path 17126" transform="translate(-272.221 -329.916)"/>
            </g>
            <g id="prefix__Group_8225" data-name="Group 8225" transform="translate(31.402 8.087)">
                <path id="prefix__Path_17127" d="M266.7 315.653l-1.3-.662.277-.549 1.3.658c-.1.191-.182.362-.278.553" class="prefix__cls-1" data-name="Path 17127" transform="translate(-265.398 -314.442)"/>
            </g>
            <g id="prefix__Group_8226" data-name="Group 8226" transform="translate(32.825 8.749)">
                <path id="prefix__Path_17128" d="M268.8 316.616l-.006.005c-.06.08-.126.053-.192.011l-1.125-.7.323-.524 1.223.763-.222.447" class="prefix__cls-1" data-name="Path 17128" transform="translate(-267.472 -315.406)"/>
            </g>
            <g id="prefix__Group_8227" data-name="Group 8227" transform="translate(39.937 35.539)">
                <path id="prefix__Path_17129" d="M278.442 355.382l-.608-.425.369-.52.6.419-.362.526" class="prefix__cls-1" data-name="Path 17129" transform="translate(-277.834 -354.438)"/>
            </g>
            <g id="prefix__Group_8228" data-name="Group 8228" transform="translate(13.07 40.461)">
                <path id="prefix__Path_17130" d="M239.093 361.609l.516.336a3.512 3.512 0 0 1-.389.629l-.531-.342c.139-.213.265-.408.4-.622" class="prefix__cls-1" data-name="Path 17130" transform="translate(-238.69 -361.609)"/>
            </g>
            <g id="prefix__Group_8229" data-name="Group 8229" transform="translate(37.369 3.894)">
                <path id="prefix__Path_17131" d="M274.092 308.753l.261-.42.458.281-.259.423-.461-.283" class="prefix__cls-1" data-name="Path 17131" transform="translate(-274.092 -308.333)"/>
            </g>
        </g>
        <g id="prefix__Group_8238" data-name="Group 8238" transform="translate(274.92 313.768)">
            <g id="prefix__Group_8231" data-name="Group 8231" transform="translate(0 .011)">
                <path id="prefix__Path_17132" d="M306.586 337.1a12.1 12.1 0 0 1-3.375-.45 10.046 10.046 0 0 1-3.034-1.5v-4.08h2.376l.389 2.643a5.281 5.281 0 0 0 1.59.743 7.166 7.166 0 0 0 2.053.281 4.707 4.707 0 0 0 1.821-.311 2.523 2.523 0 0 0 1.127-.872 2.262 2.262 0 0 0 .391-1.327 2.331 2.331 0 0 0-.341-1.255 2.963 2.963 0 0 0-1.133-.981 10.063 10.063 0 0 0-2.145-.8 15.188 15.188 0 0 1-3.319-1.267 5.519 5.519 0 0 1-2.01-1.755 4.563 4.563 0 0 1 .1-4.934 5.244 5.244 0 0 1 2.15-1.73 7.66 7.66 0 0 1 3.18-.646 10.1 10.1 0 0 1 3.491.512 8.359 8.359 0 0 1 2.564 1.4v3.814h-2.327l-.439-2.486a4.675 4.675 0 0 0-1.3-.6 6.341 6.341 0 0 0-1.882-.249 4.1 4.1 0 0 0-1.633.3 2.611 2.611 0 0 0-1.109.859 2.187 2.187 0 0 0-.4 1.321 1.968 1.968 0 0 0 .354 1.169 3.072 3.072 0 0 0 1.181.908 14.27 14.27 0 0 0 2.242.822 10.425 10.425 0 0 1 4.374 2.121 4.453 4.453 0 0 1 1.486 3.448 4.285 4.285 0 0 1-.8 2.577 5.175 5.175 0 0 1-2.242 1.71 8.647 8.647 0 0 1-3.381.61" class="prefix__cls-1" data-name="Path 17132" transform="translate(-300.178 -318.861)"/>
            </g>
            <g id="prefix__Group_8232" data-name="Group 8232" transform="translate(14.522)">
                <path id="prefix__Path_17133" d="M329.085 337.1a7.454 7.454 0 0 1-3.192-.664 7.047 7.047 0 0 1-2.443-1.87 8.587 8.587 0 0 1-1.565-2.851 11.354 11.354 0 0 1-.549-3.606v-.268a11.316 11.316 0 0 1 .549-3.594 8.648 8.648 0 0 1 1.565-2.857 7 7 0 0 1 2.443-1.876 7.423 7.423 0 0 1 3.179-.664 7.656 7.656 0 0 1 3.253.664 6.92 6.92 0 0 1 2.45 1.876 8.551 8.551 0 0 1 1.547 2.857 11.535 11.535 0 0 1 .536 3.594v.268a11.574 11.574 0 0 1-.536 3.606 8.491 8.491 0 0 1-1.547 2.851 6.968 6.968 0 0 1-2.45 1.87 7.626 7.626 0 0 1-3.24.664m0-2.437a4.147 4.147 0 0 0 2.65-.822 4.825 4.825 0 0 0 1.547-2.3 10.59 10.59 0 0 0 .506-3.435v-.292a10.282 10.282 0 0 0-.512-3.4 4.915 4.915 0 0 0-1.553-2.291 4.125 4.125 0 0 0-2.65-.828 3.986 3.986 0 0 0-2.571.828 5.022 5.022 0 0 0-1.559 2.291 10.079 10.079 0 0 0-.523 3.4v.292a10.287 10.287 0 0 0 .523 3.43 4.946 4.946 0 0 0 1.566 2.3 4.028 4.028 0 0 0 2.577.822" class="prefix__cls-1" data-name="Path 17133" transform="translate(-321.336 -318.845)"/>
            </g>
            <g id="prefix__Group_8233" data-name="Group 8233" transform="translate(31.712 .255)">
                <path id="prefix__Path_17134" d="M346.382 336.956v-1.877l1.925-.365v-13.243l-1.925-.365v-1.889h6.324l5.2 12.829h.074l5.044-12.829h6.4v1.889l-1.937.365v13.242l1.937.365v1.877h-6.932v-1.877l2.035-.365v-4.129l.024-7.761-.061-.011-5.495 13.742h-2.229l-5.654-13.67-.06.013.159 7.48v4.337l2.107.365v1.877z" class="prefix__cls-1" data-name="Path 17134" transform="translate(-346.382 -319.217)"/>
            </g>
            <g id="prefix__Group_8234" data-name="Group 8234" transform="translate(55.555 .255)">
                <path id="prefix__Path_17135" d="M381.12 336.956v-1.876l1.292-.182 5.872-15.68h2.985l5.8 15.68 1.291.182v1.876h-5.641v-1.876l1.267-.231-.938-2.791h-6.6l-.962 2.791 1.279.231v1.876zm6.128-7.249h5.007l-2.3-6.566-.158-.475h-.073l-.171.5z" class="prefix__cls-1" data-name="Path 17135" transform="translate(-381.12 -319.217)"/>
            </g>
            <g id="prefix__Group_8235" data-name="Group 8235" transform="translate(74.244 .255)">
                <path id="prefix__Path_17136" d="M408.35 336.956v-1.877l1.937-.365v-13.243l-1.937-.365v-1.889h6.932v1.889l-1.925.365v13.242l1.925.365v1.877z" class="prefix__cls-1" data-name="Path 17136" transform="translate(-408.35 -319.217)"/>
            </g>
            <g id="prefix__Group_8236" data-name="Group 8236" transform="translate(82.431 .255)">
                <path id="prefix__Path_17137" d="M425.3 336.956v-1.877l1.925-.365v-4l-5.336-9.37-1.608-.243v-1.889h6.676v1.889l-1.693.219 3.29 6.214.268.536.048-.024.256-.5 3.558-6.226-2.011-.219v-1.889h6.542v1.889l-1.669.243-5.262 9.126v4.239l1.937.365v1.877z" class="prefix__cls-1" data-name="Path 17137" transform="translate(-420.277 -319.217)"/>
            </g>
            <g id="prefix__Group_8237" data-name="Group 8237" transform="translate(97.501 .255)">
                <path id="prefix__Path_17138" d="M442.235 336.956v-1.876l1.292-.182 5.872-15.68h2.985l5.8 15.68 1.291.182v1.876h-5.641v-1.876l1.267-.231-.938-2.791h-6.6l-.962 2.791 1.279.231v1.876zm6.128-7.249h5.007l-2.3-6.566-.158-.475h-.074l-.17.5z" class="prefix__cls-1" data-name="Path 17138" transform="translate(-442.235 -319.217)"/>
            </g>
        </g>
        <g id="prefix__Group_8239" data-name="Group 8239" transform="translate(274.921 336.164)">
            <path id="prefix__Path_17139" d="M302.827 357.971l-2.032-5.5-.615-.071v-.918h2.911v.918l-.58.089 1.163 3.647.063.254h.026l.058-.241 1.128-3.66-.7-.089v-.918h2.719v.918l-.633.071-1.818 5.5z" class="prefix__cls-1" data-name="Path 17139" transform="translate(-300.18 -351.477)"/>
            <path id="prefix__Path_17140" d="M319.639 357.971v-.914l.673-.143v-4.373l-.673-.143v-.918h2.907v.918l-.673.143v4.373l.673.143v.914z" class="prefix__cls-1" data-name="Path 17140" transform="translate(-306.283 -351.477)"/>
            <path id="prefix__Path_17141" d="M333.611 357.971v-.914l.682-.165v-4.324l-.682-.17v-.918h3.04a2.956 2.956 0 0 1 1.555.408 2.846 2.846 0 0 1 1.061 1.128 3.48 3.48 0 0 1 .384 1.66v.1a3.481 3.481 0 0 1-.384 1.66 2.829 2.829 0 0 1-1.061 1.126 2.962 2.962 0 0 1-1.555.406zm2.246-1.185h.713a1.344 1.344 0 0 0 .829-.25 1.524 1.524 0 0 0 .506-.7 2.958 2.958 0 0 0 .172-1.054v-.107a2.946 2.946 0 0 0-.172-1.052 1.526 1.526 0 0 0-.506-.7 1.349 1.349 0 0 0-.829-.25h-.713z" class="prefix__cls-1" data-name="Path 17141" transform="translate(-310.665 -351.477)"/>
            <path id="prefix__Path_17142" d="M353.949 357.971v-.914l.673-.143v-1.083l-1.881-3.339-.678-.093v-.918h2.809v.918l-.4.071.891 1.778.1.228h.04l.107-.214 1.043-1.792-.677-.071v-.918h2.755v.918l-.687.093-1.863 3.214v1.208l.678.143v.914z" class="prefix__cls-1" data-name="Path 17142" transform="translate(-316.453 -351.477)"/>
            <path id="prefix__Path_17143" d="M369.633 357.971v-.914l.455-.067 1.934-5.51h1.694l1.939 5.51.455.067v.914h-2.426v-.914l.424-.08-.2-.7h-2.087l-.187.7.424.08v.914zm2.523-2.795h1.422l-.633-1.966-.071-.227h-.027l-.076.249z" class="prefix__cls-1" data-name="Path 17143" transform="translate(-321.964 -351.477)"/>
            <path id="prefix__Path_17144" d="M390.182 357.971l-2.033-5.5-.615-.071v-.918h2.911v.918l-.579.089 1.163 3.647.062.254h.027l.058-.241 1.128-3.66-.695-.089v-.918h2.719v.918l-.633.071-1.819 5.5z" class="prefix__cls-1" data-name="Path 17144" transform="translate(-327.578 -351.477)"/>
            <path id="prefix__Path_17145" d="M406.993 357.971v-.914l.673-.143v-4.373l-.673-.143v-.918h2.907v.918l-.673.143v4.373l.673.143v.914z" class="prefix__cls-1" data-name="Path 17145" transform="translate(-333.681 -351.477)"/>
            <path id="prefix__Path_17146" d="M420.965 357.971v-.914l.673-.143v-4.373l-.673-.143v-.918h2.911v.918l-.673.143v1.64h2.363v-1.64l-.673-.143v-.918h2.907v.918l-.673.143v4.373l.673.143v.914h-2.906v-.914l.673-.143v-1.533H423.2v1.533l.673.143v.914z" class="prefix__cls-1" data-name="Path 17146" transform="translate(-338.064 -351.477)"/>
            <path id="prefix__Path_17147" d="M439.541 357.971v-.914l.455-.067 1.934-5.51h1.695l1.938 5.51.455.067v.914h-2.425v-.914l.423-.08-.2-.7h-2.086l-.187.7.423.08v.914zm2.523-2.795h1.422l-.633-1.966-.071-.227h-.027l-.076.249z" class="prefix__cls-1" data-name="Path 17147" transform="translate(-343.89 -351.477)"/>
            <path id="prefix__Path_17148" d="M458.605 357.969v-.914l.673-.143v-4.372l-.673-.143v-.922h3.195a3.346 3.346 0 0 1 1.337.245 1.97 1.97 0 0 1 .874.7 1.861 1.861 0 0 1 .308 1.072 1.948 1.948 0 0 1-.31 1.061 2.284 2.284 0 0 1-.849.787 2.48 2.48 0 0 1-1.231.292l-1.083-.014v1.3l.673.143v.914zm2.237-3.553h.972a1.041 1.041 0 0 0 .7-.212.764.764 0 0 0 .245-.613.905.905 0 0 0-.25-.666.959.959 0 0 0-.713-.252h-.954zm1.872 3.553l-.874-2.532 1.36-.463.789 1.93.615.156v.909z" class="prefix__cls-1" data-name="Path 17148" transform="translate(-349.869 -351.475)"/>
        </g>
    </g>
</svg>
